<svg id="visual" viewBox="0 0 900 450" width="900" height="450" xmlns="http://www.w3.org/2000/svg" xmlns:xlink="http://www.w3.org/1999/xlink" version="1.1"><rect x="0" y="0" width="900" height="450" fill="#000910"></rect><path d="M0 331L11.5 320.8C23 310.7 46 290.3 69 282.8C92 275.3 115 280.7 138.2 286.8C161.3 293 184.7 300 207.8 298.7C231 297.3 254 287.7 277 289.5C300 291.3 323 304.7 346 312.2C369 319.7 392 321.3 415.2 324.5C438.3 327.7 461.7 332.3 484.8 334C508 335.7 531 334.3 554 324.3C577 314.3 600 295.7 623 288.8C646 282 669 287 692.2 294.7C715.3 302.3 738.7 312.7 761.8 309.5C785 306.3 808 289.7 831 290C854 290.3 877 307.7 888.5 316.3L900 325L900 451L888.5 451C877 451 854 451 831 451C808 451 785 451 761.8 451C738.7 451 715.3 451 692.2 451C669 451 646 451 623 451C600 451 577 451 554 451C531 451 508 451 484.8 451C461.7 451 438.3 451 415.2 451C392 451 369 451 346 451C323 451 300 451 277 451C254 451 231 451 207.8 451C184.7 451 161.3 451 138.2 451C115 451 92 451 69 451C46 451 23 451 11.5 451L0 451Z" fill="#bf5600"></path><path d="M0 317L11.5 312.7C23 308.3 46 299.7 69 295.2C92 290.7 115 290.3 138.2 300.8C161.3 311.3 184.7 332.7 207.8 340.7C231 348.7 254 343.3 277 342.8C300 342.3 323 346.7 346 342.2C369 337.7 392 324.3 415.2 320.3C438.3 316.3 461.7 321.7 484.8 329.3C508 337 531 347 554 350C577 353 600 349 623 348.7C646 348.3 669 351.7 692.2 342.2C715.3 332.7 738.7 310.3 761.8 308.7C785 307 808 326 831 330.7C854 335.3 877 325.7 888.5 320.8L900 316L900 451L888.5 451C877 451 854 451 831 451C808 451 785 451 761.8 451C738.7 451 715.3 451 692.2 451C669 451 646 451 623 451C600 451 577 451 554 451C531 451 508 451 484.8 451C461.7 451 438.3 451 415.2 451C392 451 369 451 346 451C323 451 300 451 277 451C254 451 231 451 207.8 451C184.7 451 161.3 451 138.2 451C115 451 92 451 69 451C46 451 23 451 11.5 451L0 451Z" fill="#a64109"></path><path d="M0 367L11.5 359C23 351 46 335 69 329.5C92 324 115 329 138.2 331.5C161.3 334 184.7 334 207.8 332.8C231 331.7 254 329.3 277 337.2C300 345 323 363 346 371.5C369 380 392 379 415.2 372C438.3 365 461.7 352 484.8 350.7C508 349.3 531 359.7 554 366.5C577 373.3 600 376.7 623 373.3C646 370 669 360 692.2 355.3C715.3 350.7 738.7 351.3 761.8 348.2C785 345 808 338 831 334.2C854 330.3 877 329.7 888.5 329.3L900 329L900 451L888.5 451C877 451 854 451 831 451C808 451 785 451 761.8 451C738.7 451 715.3 451 692.2 451C669 451 646 451 623 451C600 451 577 451 554 451C531 451 508 451 484.8 451C461.7 451 438.3 451 415.2 451C392 451 369 451 346 451C323 451 300 451 277 451C254 451 231 451 207.8 451C184.7 451 161.3 451 138.2 451C115 451 92 451 69 451C46 451 23 451 11.5 451L0 451Z" fill="#8c2e0c"></path><path d="M0 382L11.5 377.7C23 373.3 46 364.7 69 361.8C92 359 115 362 138.2 363.5C161.3 365 184.7 365 207.8 369.5C231 374 254 383 277 383.5C300 384 323 376 346 374.3C369 372.7 392 377.3 415.2 380.2C438.3 383 461.7 384 484.8 383C508 382 531 379 554 374.5C577 370 600 364 623 363.8C646 363.7 669 369.3 692.2 374.2C715.3 379 738.7 383 761.8 387.2C785 391.3 808 395.7 831 395C854 394.3 877 388.7 888.5 385.8L900 383L900 451L888.5 451C877 451 854 451 831 451C808 451 785 451 761.8 451C738.7 451 715.3 451 692.2 451C669 451 646 451 623 451C600 451 577 451 554 451C531 451 508 451 484.8 451C461.7 451 438.3 451 415.2 451C392 451 369 451 346 451C323 451 300 451 277 451C254 451 231 451 207.8 451C184.7 451 161.3 451 138.2 451C115 451 92 451 69 451C46 451 23 451 11.5 451L0 451Z" fill="#711c0b"></path><path d="M0 418L11.5 415.5C23 413 46 408 69 404.3C92 400.7 115 398.3 138.2 400.8C161.3 403.3 184.7 410.7 207.8 412.7C231 414.7 254 411.3 277 410C300 408.7 323 409.3 346 408.7C369 408 392 406 415.2 404.3C438.3 402.7 461.7 401.3 484.8 399.2C508 397 531 394 554 397C577 400 600 409 623 409.7C646 410.3 669 402.7 692.2 402.7C715.3 402.7 738.7 410.3 761.8 413.8C785 417.3 808 416.7 831 412C854 407.3 877 398.7 888.5 394.3L900 390L900 451L888.5 451C877 451 854 451 831 451C808 451 785 451 761.8 451C738.7 451 715.3 451 692.2 451C669 451 646 451 623 451C600 451 577 451 554 451C531 451 508 451 484.8 451C461.7 451 438.3 451 415.2 451C392 451 369 451 346 451C323 451 300 451 277 451C254 451 231 451 207.8 451C184.7 451 161.3 451 138.2 451C115 451 92 451 69 451C46 451 23 451 11.5 451L0 451Z" fill="#570c05"></path></svg>