<svg id="visual" viewBox="0 0 900 450" width="900" height="450" xmlns="http://www.w3.org/2000/svg" xmlns:xlink="http://www.w3.org/1999/xlink" version="1.1"><rect x="0" y="0" width="900" height="450" fill="#001220"></rect><path d="M0 393L11.5 393C23 393 46 393 69 392.8C92 392.7 115 392.3 138.2 392.3C161.3 392.3 184.7 392.7 207.8 393C231 393.3 254 393.7 277 394C300 394.3 323 394.7 346 395C369 395.3 392 395.7 415.2 395.5C438.3 395.3 461.7 394.7 484.8 395C508 395.3 531 396.7 554 396.3C577 396 600 394 623 393.2C646 392.3 669 392.7 692.2 393.5C715.3 394.3 738.7 395.7 761.8 396.2C785 396.7 808 396.3 831 396.3C854 396.3 877 396.7 888.5 396.8L900 397L900 451L888.5 451C877 451 854 451 831 451C808 451 785 451 761.8 451C738.7 451 715.3 451 692.2 451C669 451 646 451 623 451C600 451 577 451 554 451C531 451 508 451 484.8 451C461.7 451 438.3 451 415.2 451C392 451 369 451 346 451C323 451 300 451 277 451C254 451 231 451 207.8 451C184.7 451 161.3 451 138.2 451C115 451 92 451 69 451C46 451 23 451 11.5 451L0 451Z" fill="#fa7268"></path><path d="M0 408L11.5 407.2C23 406.3 46 404.7 69 403.8C92 403 115 403 138.2 403.3C161.3 403.7 184.7 404.3 207.8 404.2C231 404 254 403 277 403.3C300 403.7 323 405.3 346 405.8C369 406.3 392 405.7 415.2 405.2C438.3 404.7 461.7 404.3 484.8 404C508 403.7 531 403.3 554 403.8C577 404.3 600 405.7 623 406.3C646 407 669 407 692.2 407C715.3 407 738.7 407 761.8 406.8C785 406.7 808 406.3 831 406.2C854 406 877 406 888.5 406L900 406L900 451L888.5 451C877 451 854 451 831 451C808 451 785 451 761.8 451C738.7 451 715.3 451 692.2 451C669 451 646 451 623 451C600 451 577 451 554 451C531 451 508 451 484.8 451C461.7 451 438.3 451 415.2 451C392 451 369 451 346 451C323 451 300 451 277 451C254 451 231 451 207.8 451C184.7 451 161.3 451 138.2 451C115 451 92 451 69 451C46 451 23 451 11.5 451L0 451Z" fill="#ef5f67"></path><path d="M0 416L11.5 416C23 416 46 416 69 416C92 416 115 416 138.2 415.8C161.3 415.7 184.7 415.3 207.8 414.8C231 414.3 254 413.7 277 413.7C300 413.7 323 414.3 346 414.7C369 415 392 415 415.2 414.7C438.3 414.3 461.7 413.7 484.8 413.2C508 412.7 531 412.3 554 412.8C577 413.3 600 414.7 623 414.8C646 415 669 414 692.2 413.8C715.3 413.7 738.7 414.3 761.8 414.5C785 414.7 808 414.3 831 414.3C854 414.3 877 414.7 888.5 414.8L900 415L900 451L888.5 451C877 451 854 451 831 451C808 451 785 451 761.8 451C738.7 451 715.3 451 692.2 451C669 451 646 451 623 451C600 451 577 451 554 451C531 451 508 451 484.8 451C461.7 451 438.3 451 415.2 451C392 451 369 451 346 451C323 451 300 451 277 451C254 451 231 451 207.8 451C184.7 451 161.3 451 138.2 451C115 451 92 451 69 451C46 451 23 451 11.5 451L0 451Z" fill="#e34c67"></path><path d="M0 423L11.5 423.3C23 423.7 46 424.3 69 424.5C92 424.7 115 424.3 138.2 424.2C161.3 424 184.7 424 207.8 424.2C231 424.3 254 424.7 277 424.7C300 424.7 323 424.3 346 424.2C369 424 392 424 415.2 424C438.3 424 461.7 424 484.8 424.3C508 424.7 531 425.3 554 425.5C577 425.7 600 425.3 623 425.2C646 425 669 425 692.2 424.7C715.3 424.3 738.7 423.7 761.8 423.8C785 424 808 425 831 425.5C854 426 877 426 888.5 426L900 426L900 451L888.5 451C877 451 854 451 831 451C808 451 785 451 761.8 451C738.7 451 715.3 451 692.2 451C669 451 646 451 623 451C600 451 577 451 554 451C531 451 508 451 484.8 451C461.7 451 438.3 451 415.2 451C392 451 369 451 346 451C323 451 300 451 277 451C254 451 231 451 207.8 451C184.7 451 161.3 451 138.2 451C115 451 92 451 69 451C46 451 23 451 11.5 451L0 451Z" fill="#d53867"></path><path d="M0 434L11.5 434.2C23 434.3 46 434.7 69 434.5C92 434.3 115 433.7 138.2 433.5C161.3 433.3 184.7 433.7 207.8 433.8C231 434 254 434 277 434C300 434 323 434 346 434.2C369 434.3 392 434.7 415.2 434.7C438.3 434.7 461.7 434.3 484.8 434C508 433.7 531 433.3 554 433.5C577 433.7 600 434.3 623 434.7C646 435 669 435 692.2 435C715.3 435 738.7 435 761.8 434.8C785 434.7 808 434.3 831 434.2C854 434 877 434 888.5 434L900 434L900 451L888.5 451C877 451 854 451 831 451C808 451 785 451 761.8 451C738.7 451 715.3 451 692.2 451C669 451 646 451 623 451C600 451 577 451 554 451C531 451 508 451 484.8 451C461.7 451 438.3 451 415.2 451C392 451 369 451 346 451C323 451 300 451 277 451C254 451 231 451 207.8 451C184.7 451 161.3 451 138.2 451C115 451 92 451 69 451C46 451 23 451 11.5 451L0 451Z" fill="#c62368"></path></svg>