<svg id="visual" viewBox="0 0 900 450" width="900" height="450" xmlns="http://www.w3.org/2000/svg" xmlns:xlink="http://www.w3.org/1999/xlink" version="1.1"><g stroke-width="1" stroke-linejoin="bevel"><path d="M454 216L405 244L450 252Z" fill="#602f66" stroke="#602f66"></path><path d="M405 244L412 255L450 252Z" fill="#202548" stroke="#202548"></path><path d="M454 216L407 200L405 244Z" fill="#202548" stroke="#202548"></path><path d="M412 255L462 274L450 252Z" fill="#a73068" stroke="#a73068"></path><path d="M450 252L462 274L454 216Z" fill="#602f66" stroke="#602f66"></path><path d="M412 155L397 174L407 200Z" fill="#202548" stroke="#202548"></path><path d="M312 191L328 267L405 244Z" fill="#df434d" stroke="#df434d"></path><path d="M454 216L412 155L407 200Z" fill="#602f66" stroke="#602f66"></path><path d="M410 362L454 324L412 255Z" fill="#c6355e" stroke="#c6355e"></path><path d="M412 255L454 324L462 274Z" fill="#602f66" stroke="#602f66"></path><path d="M561 241L514 177L454 216Z" fill="#602f66" stroke="#602f66"></path><path d="M461 128L436 126L412 155Z" fill="#a73068" stroke="#a73068"></path><path d="M561 241L454 216L462 274Z" fill="#f05a36" stroke="#f05a36"></path><path d="M461 128L412 155L454 216Z" fill="#84306b" stroke="#84306b"></path><path d="M514 177L461 128L454 216Z" fill="#f7770f" stroke="#f7770f"></path><path d="M312 191L405 244L407 200Z" fill="#c6355e" stroke="#c6355e"></path><path d="M405 244L328 267L412 255Z" fill="#f05a36" stroke="#f05a36"></path><path d="M412 155L391 121L397 174Z" fill="#84306b" stroke="#84306b"></path><path d="M397 174L312 191L407 200Z" fill="#df434d" stroke="#df434d"></path><path d="M436 126L391 121L412 155Z" fill="#00101c" stroke="#00101c"></path><path d="M407 99L391 121L436 126Z" fill="#202548" stroke="#202548"></path><path d="M391 121L359 135L397 174Z" fill="#602f66" stroke="#602f66"></path><path d="M520 324L529 305L462 274Z" fill="#c6355e" stroke="#c6355e"></path><path d="M359 135L312 191L397 174Z" fill="#c6355e" stroke="#c6355e"></path><path d="M410 362L460 354L454 324Z" fill="#202548" stroke="#202548"></path><path d="M454 324L520 324L462 274Z" fill="#202548" stroke="#202548"></path><path d="M312 191L309 265L328 267Z" fill="#f7770f" stroke="#f7770f"></path><path d="M328 267L325 304L412 255Z" fill="#202548" stroke="#202548"></path><path d="M309 265L325 304L328 267Z" fill="#0b1c32" stroke="#0b1c32"></path><path d="M501 343L520 324L454 324Z" fill="#f7770f" stroke="#f7770f"></path><path d="M575 272L561 241L529 305Z" fill="#df434d" stroke="#df434d"></path><path d="M529 305L561 241L462 274Z" fill="#202548" stroke="#202548"></path><path d="M330 327L275 356L314 357Z" fill="#00101c" stroke="#00101c"></path><path d="M325 304L327 313L412 255Z" fill="#3e2c5a" stroke="#3e2c5a"></path><path d="M460 354L501 343L454 324Z" fill="#202548" stroke="#202548"></path><path d="M330 327L410 362L412 255Z" fill="#00101c" stroke="#00101c"></path><path d="M557 187L553 180L514 177Z" fill="#0b1c32" stroke="#0b1c32"></path><path d="M514 177L527 126L461 128Z" fill="#f7770f" stroke="#f7770f"></path><path d="M561 241L557 187L514 177Z" fill="#84306b" stroke="#84306b"></path><path d="M417 92L407 99L436 126Z" fill="#0b1c32" stroke="#0b1c32"></path><path d="M391 121L383 77L359 135Z" fill="#df434d" stroke="#df434d"></path><path d="M314 357L275 356L278 358Z" fill="#202548" stroke="#202548"></path><path d="M327 313L330 327L412 255Z" fill="#df434d" stroke="#df434d"></path><path d="M359 135L327 139L312 191Z" fill="#84306b" stroke="#84306b"></path><path d="M305 130L327 139L383 77Z" fill="#f05a36" stroke="#f05a36"></path><path d="M461 128L417 92L436 126Z" fill="#0b1c32" stroke="#0b1c32"></path><path d="M383 77L327 139L359 135Z" fill="#602f66" stroke="#602f66"></path><path d="M444 44L417 92L461 128Z" fill="#00101c" stroke="#00101c"></path><path d="M369 381L423 372L410 362Z" fill="#3e2c5a" stroke="#3e2c5a"></path><path d="M410 362L423 372L460 354Z" fill="#202548" stroke="#202548"></path><path d="M460 354L519 381L501 343Z" fill="#602f66" stroke="#602f66"></path><path d="M552 155L514 177L553 180Z" fill="#602f66" stroke="#602f66"></path><path d="M552 155L527 126L514 177Z" fill="#f7770f" stroke="#f7770f"></path><path d="M580 197L552 155L553 180Z" fill="#602f66" stroke="#602f66"></path><path d="M312 191L284 257L309 265Z" fill="#602f66" stroke="#602f66"></path><path d="M309 265L284 257L325 304Z" fill="#0b1c32" stroke="#0b1c32"></path><path d="M256 214L284 257L312 191Z" fill="#202548" stroke="#202548"></path><path d="M548 363L575 272L529 305Z" fill="#84306b" stroke="#84306b"></path><path d="M561 241L580 197L557 187Z" fill="#3e2c5a" stroke="#3e2c5a"></path><path d="M557 187L580 197L553 180Z" fill="#f05a36" stroke="#f05a36"></path><path d="M583 265L575 272L612 266Z" fill="#f7770f" stroke="#f7770f"></path><path d="M618 217L580 197L561 241Z" fill="#00101c" stroke="#00101c"></path><path d="M548 363L529 305L520 324Z" fill="#df434d" stroke="#df434d"></path><path d="M575 272L583 265L561 241Z" fill="#00101c" stroke="#00101c"></path><path d="M552 155L538 114L527 126Z" fill="#df434d" stroke="#df434d"></path><path d="M527 126L530 89L461 128Z" fill="#0b1c32" stroke="#0b1c32"></path><path d="M566 89L538 114L552 155Z" fill="#0b1c32" stroke="#0b1c32"></path><path d="M383 77L391 121L407 99Z" fill="#602f66" stroke="#602f66"></path><path d="M327 139L290 135L312 191Z" fill="#00101c" stroke="#00101c"></path><path d="M330 327L369 381L410 362Z" fill="#f7770f" stroke="#f7770f"></path><path d="M435 41L383 77L417 92Z" fill="#a73068" stroke="#a73068"></path><path d="M417 92L383 77L407 99Z" fill="#202548" stroke="#202548"></path><path d="M263 54L290 135L305 130Z" fill="#f05a36" stroke="#f05a36"></path><path d="M305 130L290 135L327 139Z" fill="#f05a36" stroke="#f05a36"></path><path d="M330 327L314 357L369 381Z" fill="#f05a36" stroke="#f05a36"></path><path d="M330 327L327 313L275 356Z" fill="#00101c" stroke="#00101c"></path><path d="M419 450L456 402L423 372Z" fill="#c6355e" stroke="#c6355e"></path><path d="M423 372L456 402L460 354Z" fill="#c6355e" stroke="#c6355e"></path><path d="M501 343L548 363L520 324Z" fill="#f05a36" stroke="#f05a36"></path><path d="M456 402L519 381L460 354Z" fill="#a73068" stroke="#a73068"></path><path d="M566 89L530 89L538 114Z" fill="#84306b" stroke="#84306b"></path><path d="M538 114L530 89L527 126Z" fill="#c6355e" stroke="#c6355e"></path><path d="M290 135L256 214L312 191Z" fill="#0b1c32" stroke="#0b1c32"></path><path d="M275 356L327 313L325 304Z" fill="#602f66" stroke="#602f66"></path><path d="M519 381L548 363L501 343Z" fill="#f7770f" stroke="#f7770f"></path><path d="M519 381L553 368L548 363Z" fill="#3e2c5a" stroke="#3e2c5a"></path><path d="M548 363L638 334L575 272Z" fill="#0b1c32" stroke="#0b1c32"></path><path d="M638 334L612 266L575 272Z" fill="#f7770f" stroke="#f7770f"></path><path d="M583 265L618 217L561 241Z" fill="#a73068" stroke="#a73068"></path><path d="M608 83L566 89L617 92Z" fill="#df434d" stroke="#df434d"></path><path d="M419 450L465 416L456 402Z" fill="#f05a36" stroke="#f05a36"></path><path d="M456 402L465 416L519 381Z" fill="#a73068" stroke="#a73068"></path><path d="M541 450L591 409L553 368Z" fill="#df434d" stroke="#df434d"></path><path d="M530 89L444 44L461 128Z" fill="#0b1c32" stroke="#0b1c32"></path><path d="M612 266L618 217L583 265Z" fill="#f05a36" stroke="#f05a36"></path><path d="M323 417L368 411L369 381Z" fill="#84306b" stroke="#84306b"></path><path d="M369 381L368 411L423 372Z" fill="#a73068" stroke="#a73068"></path><path d="M444 44L435 41L417 92Z" fill="#a73068" stroke="#a73068"></path><path d="M383 77L273 48L305 130Z" fill="#c6355e" stroke="#c6355e"></path><path d="M566 89L552 155L617 92Z" fill="#df434d" stroke="#df434d"></path><path d="M469 0L445 0L444 44Z" fill="#84306b" stroke="#84306b"></path><path d="M275 356L325 304L284 257Z" fill="#f05a36" stroke="#f05a36"></path><path d="M314 357L323 417L369 381Z" fill="#84306b" stroke="#84306b"></path><path d="M221 319L275 356L284 257Z" fill="#df434d" stroke="#df434d"></path><path d="M275 356L281 370L278 358Z" fill="#3e2c5a" stroke="#3e2c5a"></path><path d="M278 358L281 370L314 357Z" fill="#0b1c32" stroke="#0b1c32"></path><path d="M204 147L225 212L256 214Z" fill="#a73068" stroke="#a73068"></path><path d="M256 214L214 261L284 257Z" fill="#602f66" stroke="#602f66"></path><path d="M281 370L323 417L314 357Z" fill="#f7770f" stroke="#f7770f"></path><path d="M414 450L419 450L423 372Z" fill="#00101c" stroke="#00101c"></path><path d="M225 212L214 261L256 214Z" fill="#df434d" stroke="#df434d"></path><path d="M275 356L263 378L281 370Z" fill="#202548" stroke="#202548"></path><path d="M414 450L423 372L368 411Z" fill="#202548" stroke="#202548"></path><path d="M465 416L511 438L519 381Z" fill="#602f66" stroke="#602f66"></path><path d="M350 450L414 450L368 411Z" fill="#00101c" stroke="#00101c"></path><path d="M419 450L511 438L465 416Z" fill="#3e2c5a" stroke="#3e2c5a"></path><path d="M221 319L263 378L275 356Z" fill="#202548" stroke="#202548"></path><path d="M281 370L256 414L323 417Z" fill="#3e2c5a" stroke="#3e2c5a"></path><path d="M214 261L221 319L284 257Z" fill="#f7770f" stroke="#f7770f"></path><path d="M256 414L326 435L323 417Z" fill="#00101c" stroke="#00101c"></path><path d="M323 417L326 435L368 411Z" fill="#84306b" stroke="#84306b"></path><path d="M612 266L660 213L618 217Z" fill="#a73068" stroke="#a73068"></path><path d="M617 92L552 155L652 149Z" fill="#a73068" stroke="#a73068"></path><path d="M669 219L660 213L612 266Z" fill="#602f66" stroke="#602f66"></path><path d="M638 334L548 363L553 368Z" fill="#f7770f" stroke="#f7770f"></path><path d="M591 409L638 334L553 368Z" fill="#a73068" stroke="#a73068"></path><path d="M552 155L580 197L652 149Z" fill="#602f66" stroke="#602f66"></path><path d="M469 0L444 44L500 0Z" fill="#f7770f" stroke="#f7770f"></path><path d="M445 0L373 7L435 41Z" fill="#00101c" stroke="#00101c"></path><path d="M445 0L435 41L444 44Z" fill="#df434d" stroke="#df434d"></path><path d="M435 41L373 7L383 77Z" fill="#f05a36" stroke="#f05a36"></path><path d="M176 163L190 224L225 212Z" fill="#df434d" stroke="#df434d"></path><path d="M444 44L530 89L500 0Z" fill="#a73068" stroke="#a73068"></path><path d="M326 435L350 450L368 411Z" fill="#3e2c5a" stroke="#3e2c5a"></path><path d="M652 149L580 197L618 217Z" fill="#84306b" stroke="#84306b"></path><path d="M500 0L530 89L552 17Z" fill="#202548" stroke="#202548"></path><path d="M662 169L652 149L618 217Z" fill="#f05a36" stroke="#f05a36"></path><path d="M684 305L669 219L612 266Z" fill="#602f66" stroke="#602f66"></path><path d="M660 213L662 169L618 217Z" fill="#84306b" stroke="#84306b"></path><path d="M541 450L553 368L519 381Z" fill="#202548" stroke="#202548"></path><path d="M445 0L370 0L373 7Z" fill="#a73068" stroke="#a73068"></path><path d="M353 0L273 48L383 77Z" fill="#c6355e" stroke="#c6355e"></path><path d="M682 212L662 169L660 213Z" fill="#f05a36" stroke="#f05a36"></path><path d="M204 147L256 214L290 135Z" fill="#3e2c5a" stroke="#3e2c5a"></path><path d="M225 212L190 224L214 261Z" fill="#df434d" stroke="#df434d"></path><path d="M214 261L203 320L221 319Z" fill="#f05a36" stroke="#f05a36"></path><path d="M241 450L329 450L326 435Z" fill="#84306b" stroke="#84306b"></path><path d="M326 435L329 450L350 450Z" fill="#202548" stroke="#202548"></path><path d="M240 66L204 147L290 135Z" fill="#202548" stroke="#202548"></path><path d="M552 17L530 89L566 89Z" fill="#3e2c5a" stroke="#3e2c5a"></path><path d="M353 0L383 77L373 7Z" fill="#c6355e" stroke="#c6355e"></path><path d="M221 319L203 320L263 378Z" fill="#df434d" stroke="#df434d"></path><path d="M263 378L256 414L281 370Z" fill="#c6355e" stroke="#c6355e"></path><path d="M171 322L203 320L214 261Z" fill="#a73068" stroke="#a73068"></path><path d="M273 48L263 54L305 130Z" fill="#602f66" stroke="#602f66"></path><path d="M370 0L353 0L373 7Z" fill="#a73068" stroke="#a73068"></path><path d="M419 450L541 450L511 438Z" fill="#3e2c5a" stroke="#3e2c5a"></path><path d="M511 438L541 450L519 381Z" fill="#f7770f" stroke="#f7770f"></path><path d="M500 0L486 -8L469 0Z" fill="#0b1c32" stroke="#0b1c32"></path><path d="M469 0L486 -8L445 0Z" fill="#f05a36" stroke="#f05a36"></path><path d="M445 0L486 -8L370 0Z" fill="#df434d" stroke="#df434d"></path><path d="M370 0L486 -8L353 0Z" fill="#f7770f" stroke="#f7770f"></path><path d="M626 25L552 17L608 83Z" fill="#3e2c5a" stroke="#3e2c5a"></path><path d="M608 83L552 17L566 89Z" fill="#3e2c5a" stroke="#3e2c5a"></path><path d="M500 0L604 0L486 -8Z" fill="#3e2c5a" stroke="#3e2c5a"></path><path d="M652 149L631 88L617 92Z" fill="#3e2c5a" stroke="#3e2c5a"></path><path d="M617 92L631 88L608 83Z" fill="#c6355e" stroke="#c6355e"></path><path d="M660 92L631 88L652 149Z" fill="#c6355e" stroke="#c6355e"></path><path d="M669 219L682 212L660 213Z" fill="#a73068" stroke="#a73068"></path><path d="M662 169L683 166L652 149Z" fill="#f05a36" stroke="#f05a36"></path><path d="M718 279L682 212L669 219Z" fill="#f05a36" stroke="#f05a36"></path><path d="M263 54L240 66L290 135Z" fill="#3e2c5a" stroke="#3e2c5a"></path><path d="M266 33L240 66L263 54Z" fill="#0b1c32" stroke="#0b1c32"></path><path d="M266 33L263 54L273 48Z" fill="#df434d" stroke="#df434d"></path><path d="M159 355L256 414L263 378Z" fill="#202548" stroke="#202548"></path><path d="M176 163L178 223L190 224Z" fill="#c6355e" stroke="#c6355e"></path><path d="M190 224L178 223L214 261Z" fill="#3e2c5a" stroke="#3e2c5a"></path><path d="M690 363L664 331L638 334Z" fill="#f05a36" stroke="#f05a36"></path><path d="M638 334L680 309L612 266Z" fill="#84306b" stroke="#84306b"></path><path d="M541 450L560 450L591 409Z" fill="#202548" stroke="#202548"></path><path d="M591 409L690 363L638 334Z" fill="#c6355e" stroke="#c6355e"></path><path d="M302 0L266 33L273 48Z" fill="#602f66" stroke="#602f66"></path><path d="M174 96L184 148L204 147Z" fill="#0b1c32" stroke="#0b1c32"></path><path d="M204 147L176 163L225 212Z" fill="#00101c" stroke="#00101c"></path><path d="M682 212L683 166L662 169Z" fill="#84306b" stroke="#84306b"></path><path d="M707 314L676 320L699 359Z" fill="#202548" stroke="#202548"></path><path d="M664 331L680 309L638 334Z" fill="#3e2c5a" stroke="#3e2c5a"></path><path d="M676 320L680 309L664 331Z" fill="#df434d" stroke="#df434d"></path><path d="M746 175L689 133L683 166Z" fill="#00101c" stroke="#00101c"></path><path d="M184 148L176 163L204 147Z" fill="#f05a36" stroke="#f05a36"></path><path d="M707 314L684 305L680 309Z" fill="#3e2c5a" stroke="#3e2c5a"></path><path d="M680 309L684 305L612 266Z" fill="#0b1c32" stroke="#0b1c32"></path><path d="M560 450L579 450L591 409Z" fill="#f7770f" stroke="#f7770f"></path><path d="M131 -13L302 0L353 0Z" fill="#84306b" stroke="#84306b"></path><path d="M353 0L302 0L273 48Z" fill="#f05a36" stroke="#f05a36"></path><path d="M184 148L178 148L176 163Z" fill="#00101c" stroke="#00101c"></path><path d="M174 96L178 148L184 148Z" fill="#00101c" stroke="#00101c"></path><path d="M689 133L660 92L652 149Z" fill="#df434d" stroke="#df434d"></path><path d="M631 88L633 39L608 83Z" fill="#84306b" stroke="#84306b"></path><path d="M149 269L171 322L214 261Z" fill="#0b1c32" stroke="#0b1c32"></path><path d="M203 320L159 355L263 378Z" fill="#f05a36" stroke="#f05a36"></path><path d="M149 269L214 261L178 223Z" fill="#0b1c32" stroke="#0b1c32"></path><path d="M135 198L178 223L176 163Z" fill="#84306b" stroke="#84306b"></path><path d="M135 198L155 228L178 223Z" fill="#f05a36" stroke="#f05a36"></path><path d="M683 166L689 133L652 149Z" fill="#df434d" stroke="#df434d"></path><path d="M746 175L683 166L682 212Z" fill="#602f66" stroke="#602f66"></path><path d="M626 25L633 39L675 0Z" fill="#a73068" stroke="#a73068"></path><path d="M660 92L633 39L631 88Z" fill="#3e2c5a" stroke="#3e2c5a"></path><path d="M552 17L604 0L500 0Z" fill="#602f66" stroke="#602f66"></path><path d="M541 450L607 453L560 450Z" fill="#df434d" stroke="#df434d"></path><path d="M560 450L607 453L579 450Z" fill="#00101c" stroke="#00101c"></path><path d="M579 450L607 453L591 409Z" fill="#df434d" stroke="#df434d"></path><path d="M676 320L707 314L680 309Z" fill="#602f66" stroke="#602f66"></path><path d="M419 450L607 453L541 450Z" fill="#202548" stroke="#202548"></path><path d="M214 457L607 453L419 450Z" fill="#84306b" stroke="#84306b"></path><path d="M214 457L419 450L414 450Z" fill="#602f66" stroke="#602f66"></path><path d="M214 457L414 450L350 450Z" fill="#c6355e" stroke="#c6355e"></path><path d="M155 228L149 269L178 223Z" fill="#202548" stroke="#202548"></path><path d="M633 0L626 25L675 0Z" fill="#c6355e" stroke="#c6355e"></path><path d="M633 39L626 25L608 83Z" fill="#202548" stroke="#202548"></path><path d="M131 -13L263 0L302 0Z" fill="#f7770f" stroke="#f7770f"></path><path d="M302 0L263 0L266 33Z" fill="#3e2c5a" stroke="#3e2c5a"></path><path d="M208 0L189 47L240 66Z" fill="#602f66" stroke="#602f66"></path><path d="M240 66L181 85L204 147Z" fill="#0b1c32" stroke="#0b1c32"></path><path d="M690 363L676 320L664 331Z" fill="#84306b" stroke="#84306b"></path><path d="M684 305L718 279L669 219Z" fill="#3e2c5a" stroke="#3e2c5a"></path><path d="M256 414L241 450L326 435Z" fill="#f7770f" stroke="#f7770f"></path><path d="M329 450L214 457L350 450Z" fill="#3e2c5a" stroke="#3e2c5a"></path><path d="M239 450L241 450L256 414Z" fill="#f7770f" stroke="#f7770f"></path><path d="M189 47L181 85L240 66Z" fill="#f7770f" stroke="#f7770f"></path><path d="M132 177L135 198L176 163Z" fill="#202548" stroke="#202548"></path><path d="M609 3L604 0L552 17Z" fill="#602f66" stroke="#602f66"></path><path d="M181 85L174 96L204 147Z" fill="#602f66" stroke="#602f66"></path><path d="M155 228L102 264L149 269Z" fill="#a73068" stroke="#a73068"></path><path d="M626 25L609 3L552 17Z" fill="#a73068" stroke="#a73068"></path><path d="M231 451L239 450L256 414Z" fill="#602f66" stroke="#602f66"></path><path d="M241 450L214 457L329 450Z" fill="#df434d" stroke="#df434d"></path><path d="M664 450L690 363L591 409Z" fill="#a73068" stroke="#a73068"></path><path d="M707 314L718 279L684 305Z" fill="#f05a36" stroke="#f05a36"></path><path d="M214 457L231 451L256 414Z" fill="#df434d" stroke="#df434d"></path><path d="M239 450L231 451L241 450Z" fill="#a73068" stroke="#a73068"></path><path d="M701 457L699 359L690 363Z" fill="#df434d" stroke="#df434d"></path><path d="M690 363L699 359L676 320Z" fill="#f05a36" stroke="#f05a36"></path><path d="M764 212L746 229L805 242Z" fill="#602f66" stroke="#602f66"></path><path d="M132 177L176 163L178 148Z" fill="#602f66" stroke="#602f66"></path><path d="M102 264L159 355L171 322Z" fill="#df434d" stroke="#df434d"></path><path d="M171 322L159 355L203 320Z" fill="#df434d" stroke="#df434d"></path><path d="M102 264L171 322L149 269Z" fill="#c6355e" stroke="#c6355e"></path><path d="M136 109L132 177L178 148Z" fill="#f7770f" stroke="#f7770f"></path><path d="M181 85L150 86L174 96Z" fill="#00101c" stroke="#00101c"></path><path d="M174 96L136 109L178 148Z" fill="#202548" stroke="#202548"></path><path d="M208 0L240 66L266 33Z" fill="#00101c" stroke="#00101c"></path><path d="M704 84L633 39L660 92Z" fill="#c6355e" stroke="#c6355e"></path><path d="M626 25L633 0L609 3Z" fill="#3e2c5a" stroke="#3e2c5a"></path><path d="M609 3L633 0L604 0Z" fill="#a73068" stroke="#a73068"></path><path d="M604 0L633 0L486 -8Z" fill="#df434d" stroke="#df434d"></path><path d="M733 86L704 84L689 133Z" fill="#df434d" stroke="#df434d"></path><path d="M689 133L704 84L660 92Z" fill="#3e2c5a" stroke="#3e2c5a"></path><path d="M159 355L214 457L256 414Z" fill="#df434d" stroke="#df434d"></path><path d="M231 451L214 457L241 450Z" fill="#f7770f" stroke="#f7770f"></path><path d="M746 229L718 279L805 242Z" fill="#f05a36" stroke="#f05a36"></path><path d="M718 279L746 229L682 212Z" fill="#3e2c5a" stroke="#3e2c5a"></path><path d="M189 47L150 86L181 85Z" fill="#c6355e" stroke="#c6355e"></path><path d="M150 86L136 109L174 96Z" fill="#00101c" stroke="#00101c"></path><path d="M607 453L664 450L591 409Z" fill="#3e2c5a" stroke="#3e2c5a"></path><path d="M701 457L665 450L664 450Z" fill="#c6355e" stroke="#c6355e"></path><path d="M664 450L665 450L690 363Z" fill="#a73068" stroke="#a73068"></path><path d="M746 229L746 175L682 212Z" fill="#0b1c32" stroke="#0b1c32"></path><path d="M131 -13L208 0L263 0Z" fill="#a73068" stroke="#a73068"></path><path d="M263 0L208 0L266 33Z" fill="#a73068" stroke="#a73068"></path><path d="M189 47L116 45L150 86Z" fill="#f05a36" stroke="#f05a36"></path><path d="M93 159L110 192L132 177Z" fill="#3e2c5a" stroke="#3e2c5a"></path><path d="M132 177L110 192L135 198Z" fill="#202548" stroke="#202548"></path><path d="M135 198L102 264L155 228Z" fill="#202548" stroke="#202548"></path><path d="M701 457L677 450L665 450Z" fill="#3e2c5a" stroke="#3e2c5a"></path><path d="M665 450L677 450L690 363Z" fill="#a73068" stroke="#a73068"></path><path d="M805 242L718 279L821 308Z" fill="#f7770f" stroke="#f7770f"></path><path d="M79 238L102 264L135 198Z" fill="#df434d" stroke="#df434d"></path><path d="M159 355L130 396L214 457Z" fill="#602f66" stroke="#602f66"></path><path d="M718 279L707 314L815 320Z" fill="#df434d" stroke="#df434d"></path><path d="M746 229L764 212L746 175Z" fill="#202548" stroke="#202548"></path><path d="M775 147L733 86L689 133Z" fill="#00101c" stroke="#00101c"></path><path d="M775 147L689 133L746 175Z" fill="#602f66" stroke="#602f66"></path><path d="M704 84L675 0L633 39Z" fill="#a73068" stroke="#a73068"></path><path d="M699 0L675 0L704 84Z" fill="#3e2c5a" stroke="#3e2c5a"></path><path d="M633 0L757 -6L486 -8Z" fill="#f05a36" stroke="#f05a36"></path><path d="M42 322L130 396L159 355Z" fill="#df434d" stroke="#df434d"></path><path d="M136 109L93 159L132 177Z" fill="#602f66" stroke="#602f66"></path><path d="M110 192L79 238L135 198Z" fill="#c6355e" stroke="#c6355e"></path><path d="M65 113L93 159L136 109Z" fill="#0b1c32" stroke="#0b1c32"></path><path d="M116 45L136 109L150 86Z" fill="#84306b" stroke="#84306b"></path><path d="M131 -13L168 0L208 0Z" fill="#602f66" stroke="#602f66"></path><path d="M208 0L168 0L189 47Z" fill="#3e2c5a" stroke="#3e2c5a"></path><path d="M57 228L79 238L110 192Z" fill="#84306b" stroke="#84306b"></path><path d="M102 264L42 322L159 355Z" fill="#3e2c5a" stroke="#3e2c5a"></path><path d="M607 453L701 457L664 450Z" fill="#f05a36" stroke="#f05a36"></path><path d="M677 450L701 457L690 363Z" fill="#df434d" stroke="#df434d"></path><path d="M214 457L701 457L607 453Z" fill="#00101c" stroke="#00101c"></path><path d="M730 15L699 0L704 84Z" fill="#df434d" stroke="#df434d"></path><path d="M675 0L757 -6L633 0Z" fill="#00101c" stroke="#00101c"></path><path d="M764 212L775 147L746 175Z" fill="#c6355e" stroke="#c6355e"></path><path d="M733 86L730 15L704 84Z" fill="#df434d" stroke="#df434d"></path><path d="M840 195L779 137L775 147Z" fill="#84306b" stroke="#84306b"></path><path d="M775 147L779 137L733 86Z" fill="#0b1c32" stroke="#0b1c32"></path><path d="M130 461L142 450L95 450Z" fill="#df434d" stroke="#df434d"></path><path d="M130 396L142 450L214 457Z" fill="#84306b" stroke="#84306b"></path><path d="M168 0L116 45L189 47Z" fill="#602f66" stroke="#602f66"></path><path d="M742 0L730 15L760 0Z" fill="#00101c" stroke="#00101c"></path><path d="M0 174L57 228L93 159Z" fill="#202548" stroke="#202548"></path><path d="M93 159L57 228L110 192Z" fill="#f7770f" stroke="#f7770f"></path><path d="M79 238L36 279L102 264Z" fill="#3e2c5a" stroke="#3e2c5a"></path><path d="M815 320L707 314L699 359Z" fill="#a73068" stroke="#a73068"></path><path d="M764 212L840 195L775 147Z" fill="#f05a36" stroke="#f05a36"></path><path d="M95 450L142 450L130 396Z" fill="#a73068" stroke="#a73068"></path><path d="M142 450L130 461L214 457Z" fill="#f7770f" stroke="#f7770f"></path><path d="M214 457L130 461L701 457Z" fill="#df434d" stroke="#df434d"></path><path d="M62 102L65 113L136 109Z" fill="#84306b" stroke="#84306b"></path><path d="M168 0L131 -13L116 45Z" fill="#f05a36" stroke="#f05a36"></path><path d="M116 45L62 102L136 109Z" fill="#df434d" stroke="#df434d"></path><path d="M486 -8L131 -13L353 0Z" fill="#3e2c5a" stroke="#3e2c5a"></path><path d="M798 72L730 15L733 86Z" fill="#0b1c32" stroke="#0b1c32"></path><path d="M730 15L742 0L699 0Z" fill="#df434d" stroke="#df434d"></path><path d="M699 0L757 -6L675 0Z" fill="#602f66" stroke="#602f66"></path><path d="M40 97L62 102L34 86Z" fill="#f7770f" stroke="#f7770f"></path><path d="M0 151L0 174L93 159Z" fill="#0b1c32" stroke="#0b1c32"></path><path d="M819 380L815 320L699 359Z" fill="#3e2c5a" stroke="#3e2c5a"></path><path d="M-8 224L36 279L57 228Z" fill="#0b1c32" stroke="#0b1c32"></path><path d="M57 228L36 279L79 238Z" fill="#84306b" stroke="#84306b"></path><path d="M815 320L821 308L718 279Z" fill="#a73068" stroke="#a73068"></path><path d="M701 457L785 414L699 359Z" fill="#0b1c32" stroke="#0b1c32"></path><path d="M815 320L846 311L821 308Z" fill="#c6355e" stroke="#c6355e"></path><path d="M36 279L42 322L102 264Z" fill="#202548" stroke="#202548"></path><path d="M89 450L95 450L130 396Z" fill="#00101c" stroke="#00101c"></path><path d="M779 137L798 72L733 86Z" fill="#0b1c32" stroke="#0b1c32"></path><path d="M838 83L798 72L779 137Z" fill="#f7770f" stroke="#f7770f"></path><path d="M840 195L764 212L805 242Z" fill="#f05a36" stroke="#f05a36"></path><path d="M798 72L760 0L730 15Z" fill="#f7770f" stroke="#f7770f"></path><path d="M742 0L757 -6L699 0Z" fill="#84306b" stroke="#84306b"></path><path d="M851 0L757 -6L760 0Z" fill="#a73068" stroke="#a73068"></path><path d="M760 0L757 -6L742 0Z" fill="#0b1c32" stroke="#0b1c32"></path><path d="M486 -8L757 -6L131 -13Z" fill="#c6355e" stroke="#c6355e"></path><path d="M37 380L89 450L130 396Z" fill="#f05a36" stroke="#f05a36"></path><path d="M95 450L89 450L130 461Z" fill="#0b1c32" stroke="#0b1c32"></path><path d="M701 457L773 450L785 414Z" fill="#00101c" stroke="#00101c"></path><path d="M785 414L819 380L699 359Z" fill="#0b1c32" stroke="#0b1c32"></path><path d="M131 -13L95 0L116 45Z" fill="#602f66" stroke="#602f66"></path><path d="M131 -13L94 0L95 0Z" fill="#84306b" stroke="#84306b"></path><path d="M95 0L94 0L116 45Z" fill="#0b1c32" stroke="#0b1c32"></path><path d="M847 252L840 195L805 242Z" fill="#00101c" stroke="#00101c"></path><path d="M34 86L62 102L116 45Z" fill="#c6355e" stroke="#c6355e"></path><path d="M62 102L40 97L65 113Z" fill="#df434d" stroke="#df434d"></path><path d="M843 412L819 380L785 414Z" fill="#0b1c32" stroke="#0b1c32"></path><path d="M821 308L847 252L805 242Z" fill="#a73068" stroke="#a73068"></path><path d="M857 285L847 252L821 308Z" fill="#0b1c32" stroke="#0b1c32"></path><path d="M835 74L811 56L798 72Z" fill="#602f66" stroke="#602f66"></path><path d="M798 72L811 56L760 0Z" fill="#f05a36" stroke="#f05a36"></path><path d="M42 322L37 380L130 396Z" fill="#f7770f" stroke="#f7770f"></path><path d="M17 367L37 380L42 322Z" fill="#a73068" stroke="#a73068"></path><path d="M94 0L34 86L116 45Z" fill="#3e2c5a" stroke="#3e2c5a"></path><path d="M0 151L93 159L65 113Z" fill="#df434d" stroke="#df434d"></path><path d="M0 352L17 367L42 322Z" fill="#84306b" stroke="#84306b"></path><path d="M874 363L846 311L815 320Z" fill="#f05a36" stroke="#f05a36"></path><path d="M847 252L858 192L840 195Z" fill="#3e2c5a" stroke="#3e2c5a"></path><path d="M858 96L838 83L779 137Z" fill="#a73068" stroke="#a73068"></path><path d="M888 223L858 192L847 252Z" fill="#84306b" stroke="#84306b"></path><path d="M876 252L857 285L900 326Z" fill="#602f66" stroke="#602f66"></path><path d="M846 311L857 285L821 308Z" fill="#202548" stroke="#202548"></path><path d="M858 96L779 137L840 195Z" fill="#df434d" stroke="#df434d"></path><path d="M811 56L851 0L760 0Z" fill="#202548" stroke="#202548"></path><path d="M838 83L835 74L798 72Z" fill="#84306b" stroke="#84306b"></path><path d="M0 151L65 113L0 144Z" fill="#602f66" stroke="#602f66"></path><path d="M0 300L42 322L36 279Z" fill="#a73068" stroke="#a73068"></path><path d="M37 380L15 450L89 450Z" fill="#202548" stroke="#202548"></path><path d="M-8 224L0 300L36 279Z" fill="#f05a36" stroke="#f05a36"></path><path d="M0 300L0 308L42 322Z" fill="#3e2c5a" stroke="#3e2c5a"></path><path d="M0 144L65 113L40 97Z" fill="#f05a36" stroke="#f05a36"></path><path d="M-14 146L-8 224L0 174Z" fill="#00101c" stroke="#00101c"></path><path d="M0 174L-8 224L57 228Z" fill="#602f66" stroke="#602f66"></path><path d="M0 300L-8 224L0 308Z" fill="#a73068" stroke="#a73068"></path><path d="M0 352L1 322L0 308Z" fill="#3e2c5a" stroke="#3e2c5a"></path><path d="M0 308L1 322L42 322Z" fill="#602f66" stroke="#602f66"></path><path d="M0 151L-14 146L0 174Z" fill="#f05a36" stroke="#f05a36"></path><path d="M0 100L0 144L40 97Z" fill="#3e2c5a" stroke="#3e2c5a"></path><path d="M900 326L857 285L846 311Z" fill="#c6355e" stroke="#c6355e"></path><path d="M857 285L876 252L847 252Z" fill="#602f66" stroke="#602f66"></path><path d="M880 173L858 96L840 195Z" fill="#602f66" stroke="#602f66"></path><path d="M-8 224L0 352L0 308Z" fill="#f7770f" stroke="#f7770f"></path><path d="M1 322L0 352L42 322Z" fill="#602f66" stroke="#602f66"></path><path d="M17 367L5 378L37 380Z" fill="#f7770f" stroke="#f7770f"></path><path d="M880 173L840 195L858 192Z" fill="#f7770f" stroke="#f7770f"></path><path d="M838 83L858 96L835 74Z" fill="#df434d" stroke="#df434d"></path><path d="M835 74L851 0L811 56Z" fill="#c6355e" stroke="#c6355e"></path><path d="M0 352L5 378L17 367Z" fill="#df434d" stroke="#df434d"></path><path d="M0 144L-14 146L0 151Z" fill="#602f66" stroke="#602f66"></path><path d="M34 86L0 100L40 97Z" fill="#202548" stroke="#202548"></path><path d="M0 38L0 100L34 86Z" fill="#c6355e" stroke="#c6355e"></path><path d="M848 450L843 412L785 414Z" fill="#a73068" stroke="#a73068"></path><path d="M819 380L874 363L815 320Z" fill="#0b1c32" stroke="#0b1c32"></path><path d="M0 100L-14 146L0 144Z" fill="#202548" stroke="#202548"></path><path d="M-8 224L0 399L0 352Z" fill="#202548" stroke="#202548"></path><path d="M888 223L880 173L858 192Z" fill="#0b1c32" stroke="#0b1c32"></path><path d="M876 252L888 223L847 252Z" fill="#202548" stroke="#202548"></path><path d="M900 217L888 223L876 252Z" fill="#f7770f" stroke="#f7770f"></path><path d="M0 352L0 399L5 378Z" fill="#c6355e" stroke="#c6355e"></path><path d="M5 378L0 399L37 380Z" fill="#a73068" stroke="#a73068"></path><path d="M0 450L0 399L-8 224Z" fill="#0b1c32" stroke="#0b1c32"></path><path d="M843 412L874 363L819 380Z" fill="#f7770f" stroke="#f7770f"></path><path d="M0 399L15 450L37 380Z" fill="#84306b" stroke="#84306b"></path><path d="M89 450L15 450L130 461Z" fill="#84306b" stroke="#84306b"></path><path d="M900 326L900 217L876 252Z" fill="#c6355e" stroke="#c6355e"></path><path d="M888 223L900 217L880 173Z" fill="#df434d" stroke="#df434d"></path><path d="M880 173L900 166L858 96Z" fill="#84306b" stroke="#84306b"></path><path d="M773 450L848 450L785 414Z" fill="#202548" stroke="#202548"></path><path d="M900 391L900 381L874 363Z" fill="#f05a36" stroke="#f05a36"></path><path d="M701 457L848 450L773 450Z" fill="#df434d" stroke="#df434d"></path><path d="M94 0L0 38L34 86Z" fill="#602f66" stroke="#602f66"></path><path d="M0 100L0 38L-14 146Z" fill="#84306b" stroke="#84306b"></path><path d="M701 457L849 450L848 450Z" fill="#f7770f" stroke="#f7770f"></path><path d="M848 450L849 450L843 412Z" fill="#f7770f" stroke="#f7770f"></path><path d="M900 217L900 166L880 173Z" fill="#f7770f" stroke="#f7770f"></path><path d="M900 353L900 326L874 363Z" fill="#84306b" stroke="#84306b"></path><path d="M874 363L900 326L846 311Z" fill="#c6355e" stroke="#c6355e"></path><path d="M900 81L835 74L858 96Z" fill="#602f66" stroke="#602f66"></path><path d="M900 81L851 0L835 74Z" fill="#3e2c5a" stroke="#3e2c5a"></path><path d="M131 -13L7 0L94 0Z" fill="#a73068" stroke="#a73068"></path><path d="M94 0L7 0L0 38Z" fill="#f05a36" stroke="#f05a36"></path><path d="M-14 146L0 450L-8 224Z" fill="#c6355e" stroke="#c6355e"></path><path d="M0 399L0 450L15 450Z" fill="#c6355e" stroke="#c6355e"></path><path d="M15 450L0 450L130 461Z" fill="#602f66" stroke="#602f66"></path><path d="M900 381L900 353L874 363Z" fill="#c6355e" stroke="#c6355e"></path><path d="M900 166L900 98L858 96Z" fill="#84306b" stroke="#84306b"></path><path d="M131 -13L0 0L7 0Z" fill="#a73068" stroke="#a73068"></path><path d="M7 0L0 0L0 38Z" fill="#00101c" stroke="#00101c"></path><path d="M0 38L0 0L-14 146Z" fill="#0b1c32" stroke="#0b1c32"></path><path d="M900 98L900 96L858 96Z" fill="#df434d" stroke="#df434d"></path><path d="M900 391L874 363L843 412Z" fill="#3e2c5a" stroke="#3e2c5a"></path><path d="M900 96L900 81L858 96Z" fill="#00101c" stroke="#00101c"></path><path d="M900 450L900 391L843 412Z" fill="#f7770f" stroke="#f7770f"></path><path d="M701 457L900 450L849 450Z" fill="#df434d" stroke="#df434d"></path><path d="M849 450L900 450L843 412Z" fill="#84306b" stroke="#84306b"></path><path d="M900 81L900 0L851 0Z" fill="#84306b" stroke="#84306b"></path><path d="M851 0L900 0L757 -6Z" fill="#202548" stroke="#202548"></path></g></svg>