<svg id="visual" viewBox="0 0 900 450" width="900" height="450" xmlns="http://www.w3.org/2000/svg" xmlns:xlink="http://www.w3.org/1999/xlink" version="1.1"><g stroke-width="1" stroke-linejoin="bevel"><path d="M473 219L512 224L470 191Z" fill="#2c2019" stroke="#0b1132"></path><path d="M537 192L468 187L470 191Z" fill="#af591a" stroke="#0b1132"></path><path d="M470 191L395 211L473 219Z" fill="#984f1c" stroke="#0b1132"></path><path d="M512 224L537 192L470 191Z" fill="#f7770f" stroke="#0b1132"></path><path d="M537 192L462 152L468 187Z" fill="#171717" stroke="#0b1132"></path><path d="M395 211L455 271L473 219Z" fill="#984f1c" stroke="#0b1132"></path><path d="M455 271L545 244L512 224Z" fill="#2c2019" stroke="#0b1132"></path><path d="M512 224L545 244L537 192Z" fill="#40291a" stroke="#0b1132"></path><path d="M545 244L564 234L537 192Z" fill="#2c2019" stroke="#0b1132"></path><path d="M395 211L470 191L468 187Z" fill="#de6d15" stroke="#0b1132"></path><path d="M473 219L455 271L512 224Z" fill="#984f1c" stroke="#0b1132"></path><path d="M549 135L478 118L462 152Z" fill="#af591a" stroke="#0b1132"></path><path d="M566 121L549 135L537 192Z" fill="#55321b" stroke="#0b1132"></path><path d="M537 192L549 135L462 152Z" fill="#81451c" stroke="#0b1132"></path><path d="M549 135L535 116L478 118Z" fill="#55321b" stroke="#0b1132"></path><path d="M478 118L444 117L462 152Z" fill="#40291a" stroke="#0b1132"></path><path d="M396 182L395 211L468 187Z" fill="#f7770f" stroke="#0b1132"></path><path d="M478 100L444 117L478 118Z" fill="#984f1c" stroke="#0b1132"></path><path d="M396 182L468 187L462 152Z" fill="#de6d15" stroke="#0b1132"></path><path d="M444 117L396 182L462 152Z" fill="#40291a" stroke="#0b1132"></path><path d="M535 116L519 103L478 118Z" fill="#f7770f" stroke="#0b1132"></path><path d="M519 103L478 100L478 118Z" fill="#2c2019" stroke="#0b1132"></path><path d="M545 244L584 256L564 234Z" fill="#af591a" stroke="#0b1132"></path><path d="M564 234L566 121L537 192Z" fill="#2c2019" stroke="#0b1132"></path><path d="M575 291L584 256L545 244Z" fill="#984f1c" stroke="#0b1132"></path><path d="M549 135L566 121L535 116Z" fill="#40291a" stroke="#0b1132"></path><path d="M535 116L566 121L519 103Z" fill="#f7770f" stroke="#0b1132"></path><path d="M628 112L566 121L564 234Z" fill="#de6d15" stroke="#0b1132"></path><path d="M420 308L448 307L455 271Z" fill="#c66318" stroke="#0b1132"></path><path d="M570 296L575 291L545 244Z" fill="#984f1c" stroke="#0b1132"></path><path d="M444 117L381 172L396 182Z" fill="#984f1c" stroke="#0b1132"></path><path d="M396 182L377 194L395 211Z" fill="#c66318" stroke="#0b1132"></path><path d="M381 172L377 194L396 182Z" fill="#171717" stroke="#0b1132"></path><path d="M378 258L420 308L455 271Z" fill="#f7770f" stroke="#0b1132"></path><path d="M570 296L545 244L545 319Z" fill="#984f1c" stroke="#0b1132"></path><path d="M545 319L545 244L455 271Z" fill="#55321b" stroke="#0b1132"></path><path d="M495 342L545 319L455 271Z" fill="#f7770f" stroke="#0b1132"></path><path d="M378 258L455 271L395 211Z" fill="#171717" stroke="#0b1132"></path><path d="M448 307L495 342L455 271Z" fill="#6b3b1c" stroke="#0b1132"></path><path d="M337 223L378 258L395 211Z" fill="#f7770f" stroke="#0b1132"></path><path d="M495 348L495 342L444 353Z" fill="#2c2019" stroke="#0b1132"></path><path d="M478 100L420 78L444 117Z" fill="#984f1c" stroke="#0b1132"></path><path d="M444 117L420 78L381 172Z" fill="#55321b" stroke="#0b1132"></path><path d="M455 11L420 78L478 100Z" fill="#984f1c" stroke="#0b1132"></path><path d="M444 353L495 342L448 307Z" fill="#6b3b1c" stroke="#0b1132"></path><path d="M495 342L495 348L545 319Z" fill="#de6d15" stroke="#0b1132"></path><path d="M630 284L635 252L584 256Z" fill="#171717" stroke="#0b1132"></path><path d="M584 256L635 252L564 234Z" fill="#2c2019" stroke="#0b1132"></path><path d="M630 284L584 256L575 291Z" fill="#2c2019" stroke="#0b1132"></path><path d="M597 325L575 291L570 296Z" fill="#171717" stroke="#0b1132"></path><path d="M495 348L563 339L545 319Z" fill="#f7770f" stroke="#0b1132"></path><path d="M545 319L563 339L570 296Z" fill="#de6d15" stroke="#0b1132"></path><path d="M381 172L342 174L377 194Z" fill="#6b3b1c" stroke="#0b1132"></path><path d="M377 194L337 223L395 211Z" fill="#af591a" stroke="#0b1132"></path><path d="M331 114L342 174L381 172Z" fill="#de6d15" stroke="#0b1132"></path><path d="M597 325L630 284L575 291Z" fill="#81451c" stroke="#0b1132"></path><path d="M421 352L444 353L420 308Z" fill="#984f1c" stroke="#0b1132"></path><path d="M420 308L444 353L448 307Z" fill="#2c2019" stroke="#0b1132"></path><path d="M342 174L337 223L377 194Z" fill="#6b3b1c" stroke="#0b1132"></path><path d="M388 330L399 337L420 308Z" fill="#55321b" stroke="#0b1132"></path><path d="M563 339L597 325L570 296Z" fill="#81451c" stroke="#0b1132"></path><path d="M635 252L628 112L564 234Z" fill="#81451c" stroke="#0b1132"></path><path d="M566 121L537 9L519 103Z" fill="#55321b" stroke="#0b1132"></path><path d="M504 0L455 11L478 100Z" fill="#6b3b1c" stroke="#0b1132"></path><path d="M630 284L650 256L635 252Z" fill="#40291a" stroke="#0b1132"></path><path d="M635 252L702 167L628 112Z" fill="#984f1c" stroke="#0b1132"></path><path d="M388 330L420 308L378 258Z" fill="#de6d15" stroke="#0b1132"></path><path d="M348 326L388 330L378 258Z" fill="#6b3b1c" stroke="#0b1132"></path><path d="M406 391L421 352L399 337Z" fill="#f7770f" stroke="#0b1132"></path><path d="M399 337L421 352L420 308Z" fill="#de6d15" stroke="#0b1132"></path><path d="M628 112L617 88L566 121Z" fill="#81451c" stroke="#0b1132"></path><path d="M682 111L630 102L628 112Z" fill="#40291a" stroke="#0b1132"></path><path d="M628 112L630 102L617 88Z" fill="#55321b" stroke="#0b1132"></path><path d="M313 188L323 231L337 223Z" fill="#6b3b1c" stroke="#0b1132"></path><path d="M337 223L322 252L378 258Z" fill="#2c2019" stroke="#0b1132"></path><path d="M570 377L606 339L563 339Z" fill="#40291a" stroke="#0b1132"></path><path d="M563 339L606 339L597 325Z" fill="#af591a" stroke="#0b1132"></path><path d="M597 325L652 319L630 284Z" fill="#55321b" stroke="#0b1132"></path><path d="M630 284L669 296L650 256Z" fill="#f7770f" stroke="#0b1132"></path><path d="M570 377L563 339L495 348Z" fill="#55321b" stroke="#0b1132"></path><path d="M323 231L322 252L337 223Z" fill="#2c2019" stroke="#0b1132"></path><path d="M331 114L318 167L342 174Z" fill="#6b3b1c" stroke="#0b1132"></path><path d="M342 174L313 188L337 223Z" fill="#c66318" stroke="#0b1132"></path><path d="M304 279L309 277L283 265Z" fill="#55321b" stroke="#0b1132"></path><path d="M318 167L313 188L342 174Z" fill="#55321b" stroke="#0b1132"></path><path d="M322 252L330 284L378 258Z" fill="#2c2019" stroke="#0b1132"></path><path d="M420 78L331 114L381 172Z" fill="#6b3b1c" stroke="#0b1132"></path><path d="M570 384L570 377L495 348Z" fill="#c66318" stroke="#0b1132"></path><path d="M570 384L495 348L508 427Z" fill="#81451c" stroke="#0b1132"></path><path d="M330 284L348 326L378 258Z" fill="#81451c" stroke="#0b1132"></path><path d="M365 392L406 391L399 337Z" fill="#c66318" stroke="#0b1132"></path><path d="M606 339L652 319L597 325Z" fill="#de6d15" stroke="#0b1132"></path><path d="M686 394L652 319L606 339Z" fill="#de6d15" stroke="#0b1132"></path><path d="M504 0L478 100L519 103Z" fill="#de6d15" stroke="#0b1132"></path><path d="M420 78L344 59L331 114Z" fill="#2c2019" stroke="#0b1132"></path><path d="M508 427L495 348L444 353Z" fill="#40291a" stroke="#0b1132"></path><path d="M570 377L570 384L606 339Z" fill="#af591a" stroke="#0b1132"></path><path d="M257 142L300 176L318 167Z" fill="#c66318" stroke="#0b1132"></path><path d="M318 167L300 176L313 188Z" fill="#40291a" stroke="#0b1132"></path><path d="M313 188L289 182L323 231Z" fill="#55321b" stroke="#0b1132"></path><path d="M322 252L309 277L330 284Z" fill="#40291a" stroke="#0b1132"></path><path d="M652 319L669 296L630 284Z" fill="#81451c" stroke="#0b1132"></path><path d="M650 256L690 244L635 252Z" fill="#2c2019" stroke="#0b1132"></path><path d="M617 88L537 9L566 121Z" fill="#c66318" stroke="#0b1132"></path><path d="M697 260L690 244L650 256Z" fill="#af591a" stroke="#0b1132"></path><path d="M309 277L322 252L283 265Z" fill="#2c2019" stroke="#0b1132"></path><path d="M330 284L323 344L348 326Z" fill="#f7770f" stroke="#0b1132"></path><path d="M710 298L679 284L669 296Z" fill="#f7770f" stroke="#0b1132"></path><path d="M669 296L679 284L650 256Z" fill="#81451c" stroke="#0b1132"></path><path d="M537 9L504 0L519 103Z" fill="#f7770f" stroke="#0b1132"></path><path d="M548 -34L529 0L537 9Z" fill="#81451c" stroke="#0b1132"></path><path d="M537 9L529 0L504 0Z" fill="#984f1c" stroke="#0b1132"></path><path d="M283 265L322 252L323 231Z" fill="#81451c" stroke="#0b1132"></path><path d="M309 277L304 279L330 284Z" fill="#de6d15" stroke="#0b1132"></path><path d="M257 142L289 182L300 176Z" fill="#171717" stroke="#0b1132"></path><path d="M300 176L289 182L313 188Z" fill="#40291a" stroke="#0b1132"></path><path d="M504 0L447 0L455 11Z" fill="#2c2019" stroke="#0b1132"></path><path d="M455 11L440 0L420 78Z" fill="#de6d15" stroke="#0b1132"></path><path d="M630 102L656 63L617 88Z" fill="#6b3b1c" stroke="#0b1132"></path><path d="M617 88L590 0L537 9Z" fill="#55321b" stroke="#0b1132"></path><path d="M701 135L682 111L628 112Z" fill="#af591a" stroke="#0b1132"></path><path d="M440 0L344 59L420 78Z" fill="#984f1c" stroke="#0b1132"></path><path d="M331 114L257 142L318 167Z" fill="#55321b" stroke="#0b1132"></path><path d="M365 392L399 337L388 330Z" fill="#f7770f" stroke="#0b1132"></path><path d="M421 352L406 391L444 353Z" fill="#55321b" stroke="#0b1132"></path><path d="M365 392L388 330L348 326Z" fill="#c66318" stroke="#0b1132"></path><path d="M447 0L440 0L455 11Z" fill="#f7770f" stroke="#0b1132"></path><path d="M690 244L702 167L635 252Z" fill="#81451c" stroke="#0b1132"></path><path d="M679 284L697 260L650 256Z" fill="#984f1c" stroke="#0b1132"></path><path d="M690 244L735 223L702 167Z" fill="#171717" stroke="#0b1132"></path><path d="M682 111L656 63L630 102Z" fill="#984f1c" stroke="#0b1132"></path><path d="M702 167L701 135L628 112Z" fill="#984f1c" stroke="#0b1132"></path><path d="M682 111L701 96L656 63Z" fill="#171717" stroke="#0b1132"></path><path d="M250 242L283 265L323 231Z" fill="#984f1c" stroke="#0b1132"></path><path d="M304 279L323 344L330 284Z" fill="#f7770f" stroke="#0b1132"></path><path d="M262 333L323 344L304 279Z" fill="#f7770f" stroke="#0b1132"></path><path d="M623 9L590 0L617 88Z" fill="#c66318" stroke="#0b1132"></path><path d="M470 450L508 427L444 353Z" fill="#6b3b1c" stroke="#0b1132"></path><path d="M354 -14L331 43L344 59Z" fill="#c66318" stroke="#0b1132"></path><path d="M344 59L296 73L331 114Z" fill="#171717" stroke="#0b1132"></path><path d="M701 135L706 112L682 111Z" fill="#af591a" stroke="#0b1132"></path><path d="M709 117L706 112L701 135Z" fill="#f7770f" stroke="#0b1132"></path><path d="M709 117L701 135L758 124Z" fill="#2c2019" stroke="#0b1132"></path><path d="M323 344L365 392L348 326Z" fill="#171717" stroke="#0b1132"></path><path d="M490 450L513 432L508 427Z" fill="#af591a" stroke="#0b1132"></path><path d="M490 450L508 427L470 450Z" fill="#984f1c" stroke="#0b1132"></path><path d="M508 427L513 432L570 384Z" fill="#2c2019" stroke="#0b1132"></path><path d="M733 335L710 298L652 319Z" fill="#2c2019" stroke="#0b1132"></path><path d="M758 124L701 135L702 167Z" fill="#171717" stroke="#0b1132"></path><path d="M758 124L701 96L706 112Z" fill="#f7770f" stroke="#0b1132"></path><path d="M706 112L701 96L682 111Z" fill="#984f1c" stroke="#0b1132"></path><path d="M656 63L623 9L617 88Z" fill="#2c2019" stroke="#0b1132"></path><path d="M658 18L623 9L656 63Z" fill="#984f1c" stroke="#0b1132"></path><path d="M623 9L609 0L590 0Z" fill="#55321b" stroke="#0b1132"></path><path d="M652 319L710 298L669 296Z" fill="#40291a" stroke="#0b1132"></path><path d="M679 284L710 298L697 260Z" fill="#c66318" stroke="#0b1132"></path><path d="M697 260L735 223L690 244Z" fill="#40291a" stroke="#0b1132"></path><path d="M620 441L606 339L570 384Z" fill="#81451c" stroke="#0b1132"></path><path d="M300 65L296 73L344 59Z" fill="#2c2019" stroke="#0b1132"></path><path d="M289 182L250 242L323 231Z" fill="#af591a" stroke="#0b1132"></path><path d="M331 43L300 65L344 59Z" fill="#6b3b1c" stroke="#0b1132"></path><path d="M770 264L735 223L697 260Z" fill="#81451c" stroke="#0b1132"></path><path d="M529 0L548 -34L504 0Z" fill="#55321b" stroke="#0b1132"></path><path d="M504 0L548 -34L447 0Z" fill="#171717" stroke="#0b1132"></path><path d="M447 0L548 -34L440 0Z" fill="#984f1c" stroke="#0b1132"></path><path d="M590 0L548 -34L537 9Z" fill="#40291a" stroke="#0b1132"></path><path d="M609 0L548 -34L590 0Z" fill="#af591a" stroke="#0b1132"></path><path d="M187 94L257 142L296 73Z" fill="#40291a" stroke="#0b1132"></path><path d="M296 73L257 142L331 114Z" fill="#171717" stroke="#0b1132"></path><path d="M623 9L636 0L609 0Z" fill="#c66318" stroke="#0b1132"></path><path d="M609 0L636 0L548 -34Z" fill="#40291a" stroke="#0b1132"></path><path d="M681 0L658 18L656 63Z" fill="#de6d15" stroke="#0b1132"></path><path d="M658 18L636 0L623 9Z" fill="#81451c" stroke="#0b1132"></path><path d="M782 241L742 215L735 223Z" fill="#171717" stroke="#0b1132"></path><path d="M735 223L742 215L702 167Z" fill="#c66318" stroke="#0b1132"></path><path d="M470 450L444 353L441 450Z" fill="#2c2019" stroke="#0b1132"></path><path d="M513 432L547 450L570 384Z" fill="#55321b" stroke="#0b1132"></path><path d="M236 222L250 242L289 182Z" fill="#2c2019" stroke="#0b1132"></path><path d="M249 315L262 333L304 279Z" fill="#40291a" stroke="#0b1132"></path><path d="M250 242L251 250L283 265Z" fill="#2c2019" stroke="#0b1132"></path><path d="M441 450L444 353L406 391Z" fill="#6b3b1c" stroke="#0b1132"></path><path d="M490 450L547 450L513 432Z" fill="#c66318" stroke="#0b1132"></path><path d="M407 450L441 450L406 391Z" fill="#af591a" stroke="#0b1132"></path><path d="M547 450L551 450L570 384Z" fill="#40291a" stroke="#0b1132"></path><path d="M330 -39L354 -14L440 0Z" fill="#171717" stroke="#0b1132"></path><path d="M440 0L354 -14L344 59Z" fill="#6b3b1c" stroke="#0b1132"></path><path d="M331 43L302 0L300 65Z" fill="#2c2019" stroke="#0b1132"></path><path d="M223 214L236 222L289 182Z" fill="#c66318" stroke="#0b1132"></path><path d="M250 242L236 222L251 250Z" fill="#2c2019" stroke="#0b1132"></path><path d="M277 450L407 450L365 392Z" fill="#55321b" stroke="#0b1132"></path><path d="M365 392L407 450L406 391Z" fill="#6b3b1c" stroke="#0b1132"></path><path d="M420 474L577 454L547 450Z" fill="#f7770f" stroke="#0b1132"></path><path d="M547 450L577 454L551 450Z" fill="#55321b" stroke="#0b1132"></path><path d="M551 450L577 454L570 384Z" fill="#81451c" stroke="#0b1132"></path><path d="M420 474L547 450L490 450Z" fill="#c66318" stroke="#0b1132"></path><path d="M420 474L490 450L470 450Z" fill="#f7770f" stroke="#0b1132"></path><path d="M420 474L470 450L441 450Z" fill="#f7770f" stroke="#0b1132"></path><path d="M249 315L304 279L283 265Z" fill="#81451c" stroke="#0b1132"></path><path d="M323 344L277 450L365 392Z" fill="#f7770f" stroke="#0b1132"></path><path d="M249 315L283 265L235 299Z" fill="#de6d15" stroke="#0b1132"></path><path d="M577 454L620 441L570 384Z" fill="#de6d15" stroke="#0b1132"></path><path d="M235 299L283 265L251 250Z" fill="#171717" stroke="#0b1132"></path><path d="M620 441L686 394L606 339Z" fill="#55321b" stroke="#0b1132"></path><path d="M710 298L770 264L697 260Z" fill="#6b3b1c" stroke="#0b1132"></path><path d="M257 142L223 214L289 182Z" fill="#f7770f" stroke="#0b1132"></path><path d="M236 222L223 214L251 250Z" fill="#55321b" stroke="#0b1132"></path><path d="M686 394L733 335L652 319Z" fill="#c66318" stroke="#0b1132"></path><path d="M775 149L702 167L742 215Z" fill="#984f1c" stroke="#0b1132"></path><path d="M775 149L758 124L702 167Z" fill="#984f1c" stroke="#0b1132"></path><path d="M709 117L758 124L706 112Z" fill="#984f1c" stroke="#0b1132"></path><path d="M701 96L681 0L656 63Z" fill="#40291a" stroke="#0b1132"></path><path d="M620 441L694 450L686 394Z" fill="#c66318" stroke="#0b1132"></path><path d="M577 454L614 450L620 441Z" fill="#40291a" stroke="#0b1132"></path><path d="M693 -21L681 0L765 0Z" fill="#2c2019" stroke="#0b1132"></path><path d="M658 18L681 0L636 0Z" fill="#984f1c" stroke="#0b1132"></path><path d="M636 0L693 -21L548 -34Z" fill="#f7770f" stroke="#0b1132"></path><path d="M733 335L748 312L710 298Z" fill="#af591a" stroke="#0b1132"></path><path d="M354 -14L307 0L331 43Z" fill="#de6d15" stroke="#0b1132"></path><path d="M300 65L245 13L296 73Z" fill="#de6d15" stroke="#0b1132"></path><path d="M257 142L169 147L223 214Z" fill="#c66318" stroke="#0b1132"></path><path d="M223 214L235 299L251 250Z" fill="#6b3b1c" stroke="#0b1132"></path><path d="M249 315L215 383L262 333Z" fill="#c66318" stroke="#0b1132"></path><path d="M733 335L750 312L748 312Z" fill="#de6d15" stroke="#0b1132"></path><path d="M748 312L770 264L710 298Z" fill="#c66318" stroke="#0b1132"></path><path d="M330 -39L302 0L307 0Z" fill="#2c2019" stroke="#0b1132"></path><path d="M307 0L302 0L331 43Z" fill="#40291a" stroke="#0b1132"></path><path d="M277 450L420 474L407 450Z" fill="#6b3b1c" stroke="#0b1132"></path><path d="M407 450L420 474L441 450Z" fill="#81451c" stroke="#0b1132"></path><path d="M804 474L694 450L614 450Z" fill="#171717" stroke="#0b1132"></path><path d="M772 290L770 264L748 312Z" fill="#6b3b1c" stroke="#0b1132"></path><path d="M803 175L775 149L742 215Z" fill="#40291a" stroke="#0b1132"></path><path d="M765 0L681 0L701 96Z" fill="#af591a" stroke="#0b1132"></path><path d="M805 245L782 241L770 264Z" fill="#984f1c" stroke="#0b1132"></path><path d="M770 264L782 241L735 223Z" fill="#984f1c" stroke="#0b1132"></path><path d="M750 312L772 290L748 312Z" fill="#de6d15" stroke="#0b1132"></path><path d="M802 315L772 290L750 312Z" fill="#de6d15" stroke="#0b1132"></path><path d="M779 284L772 290L802 315Z" fill="#6b3b1c" stroke="#0b1132"></path><path d="M548 -34L330 -39L440 0Z" fill="#de6d15" stroke="#0b1132"></path><path d="M354 -14L330 -39L307 0Z" fill="#55321b" stroke="#0b1132"></path><path d="M802 315L750 312L800 377Z" fill="#2c2019" stroke="#0b1132"></path><path d="M772 290L779 284L770 264Z" fill="#c66318" stroke="#0b1132"></path><path d="M765 0L701 96L758 124Z" fill="#c66318" stroke="#0b1132"></path><path d="M681 0L693 -21L636 0Z" fill="#de6d15" stroke="#0b1132"></path><path d="M803 175L790 135L775 149Z" fill="#40291a" stroke="#0b1132"></path><path d="M775 149L790 135L758 124Z" fill="#171717" stroke="#0b1132"></path><path d="M803 175L742 215L782 241Z" fill="#f7770f" stroke="#0b1132"></path><path d="M805 245L803 175L782 241Z" fill="#2c2019" stroke="#0b1132"></path><path d="M779 284L805 245L770 264Z" fill="#6b3b1c" stroke="#0b1132"></path><path d="M243 0L245 13L302 0Z" fill="#171717" stroke="#0b1132"></path><path d="M302 0L245 13L300 65Z" fill="#2c2019" stroke="#0b1132"></path><path d="M614 450L694 450L620 441Z" fill="#40291a" stroke="#0b1132"></path><path d="M686 394L800 377L733 335Z" fill="#984f1c" stroke="#0b1132"></path><path d="M779 284L826 308L805 245Z" fill="#f7770f" stroke="#0b1132"></path><path d="M804 474L614 450L577 454Z" fill="#6b3b1c" stroke="#0b1132"></path><path d="M804 474L696 450L694 450Z" fill="#55321b" stroke="#0b1132"></path><path d="M694 450L696 450L686 394Z" fill="#81451c" stroke="#0b1132"></path><path d="M330 -39L243 0L302 0Z" fill="#171717" stroke="#0b1132"></path><path d="M245 13L187 94L296 73Z" fill="#55321b" stroke="#0b1132"></path><path d="M206 0L187 94L245 13Z" fill="#af591a" stroke="#0b1132"></path><path d="M223 214L189 320L235 299Z" fill="#40291a" stroke="#0b1132"></path><path d="M800 377L750 312L733 335Z" fill="#171717" stroke="#0b1132"></path><path d="M235 299L189 320L249 315Z" fill="#c66318" stroke="#0b1132"></path><path d="M262 333L277 450L323 344Z" fill="#171717" stroke="#0b1132"></path><path d="M135 293L189 320L223 214Z" fill="#171717" stroke="#0b1132"></path><path d="M215 383L277 450L262 333Z" fill="#de6d15" stroke="#0b1132"></path><path d="M187 94L169 147L257 142Z" fill="#af591a" stroke="#0b1132"></path><path d="M189 320L215 383L249 315Z" fill="#40291a" stroke="#0b1132"></path><path d="M840 158L823 142L803 175Z" fill="#f7770f" stroke="#0b1132"></path><path d="M803 175L823 142L790 135Z" fill="#55321b" stroke="#0b1132"></path><path d="M790 135L765 0L758 124Z" fill="#40291a" stroke="#0b1132"></path><path d="M840 158L803 175L805 245Z" fill="#2c2019" stroke="#0b1132"></path><path d="M802 -17L765 0L831 0Z" fill="#171717" stroke="#0b1132"></path><path d="M800 377L816 312L802 315Z" fill="#c66318" stroke="#0b1132"></path><path d="M802 315L816 312L779 284Z" fill="#81451c" stroke="#0b1132"></path><path d="M136 144L158 156L169 147Z" fill="#55321b" stroke="#0b1132"></path><path d="M169 147L158 156L223 214Z" fill="#f7770f" stroke="#0b1132"></path><path d="M215 383L259 450L277 450Z" fill="#2c2019" stroke="#0b1132"></path><path d="M277 450L177 476L420 474Z" fill="#40291a" stroke="#0b1132"></path><path d="M800 377L826 308L816 312Z" fill="#6b3b1c" stroke="#0b1132"></path><path d="M816 312L826 308L779 284Z" fill="#f7770f" stroke="#0b1132"></path><path d="M865 163L840 158L805 245Z" fill="#171717" stroke="#0b1132"></path><path d="M802 -17L772 -22L765 0Z" fill="#6b3b1c" stroke="#0b1132"></path><path d="M752 450L800 377L686 394Z" fill="#de6d15" stroke="#0b1132"></path><path d="M187 94L155 111L169 147Z" fill="#c66318" stroke="#0b1132"></path><path d="M152 75L155 111L187 94Z" fill="#af591a" stroke="#0b1132"></path><path d="M189 320L174 348L215 383Z" fill="#af591a" stroke="#0b1132"></path><path d="M215 383L234 450L259 450Z" fill="#c66318" stroke="#0b1132"></path><path d="M159 356L174 348L136 349Z" fill="#f7770f" stroke="#0b1132"></path><path d="M330 -39L206 0L243 0Z" fill="#de6d15" stroke="#0b1132"></path><path d="M243 0L206 0L245 13Z" fill="#40291a" stroke="#0b1132"></path><path d="M765 0L790 135L831 0Z" fill="#de6d15" stroke="#0b1132"></path><path d="M765 0L772 -22L693 -21Z" fill="#6b3b1c" stroke="#0b1132"></path><path d="M693 -21L772 -22L548 -34Z" fill="#c66318" stroke="#0b1132"></path><path d="M696 450L752 450L686 394Z" fill="#c66318" stroke="#0b1132"></path><path d="M804 474L752 450L696 450Z" fill="#de6d15" stroke="#0b1132"></path><path d="M204 450L234 450L215 383Z" fill="#984f1c" stroke="#0b1132"></path><path d="M259 450L177 476L277 450Z" fill="#6b3b1c" stroke="#0b1132"></path><path d="M127 183L132 210L158 156Z" fill="#c66318" stroke="#0b1132"></path><path d="M158 156L132 210L223 214Z" fill="#6b3b1c" stroke="#0b1132"></path><path d="M124 104L136 144L155 111Z" fill="#c66318" stroke="#0b1132"></path><path d="M155 111L136 144L169 147Z" fill="#de6d15" stroke="#0b1132"></path><path d="M206 0L152 75L187 94Z" fill="#de6d15" stroke="#0b1132"></path><path d="M800 377L847 303L826 308Z" fill="#af591a" stroke="#0b1132"></path><path d="M826 308L847 303L805 245Z" fill="#de6d15" stroke="#0b1132"></path><path d="M136 144L127 183L158 156Z" fill="#2c2019" stroke="#0b1132"></path><path d="M135 293L174 348L189 320Z" fill="#de6d15" stroke="#0b1132"></path><path d="M174 348L163 382L215 383Z" fill="#171717" stroke="#0b1132"></path><path d="M135 293L223 214L132 210Z" fill="#c66318" stroke="#0b1132"></path><path d="M123 291L135 293L132 210Z" fill="#984f1c" stroke="#0b1132"></path><path d="M881 167L865 163L900 188Z" fill="#81451c" stroke="#0b1132"></path><path d="M840 158L891 115L823 142Z" fill="#2c2019" stroke="#0b1132"></path><path d="M106 157L120 200L127 183Z" fill="#984f1c" stroke="#0b1132"></path><path d="M127 183L120 200L132 210Z" fill="#40291a" stroke="#0b1132"></path><path d="M106 157L127 183L136 144Z" fill="#f7770f" stroke="#0b1132"></path><path d="M136 349L163 382L159 356Z" fill="#81451c" stroke="#0b1132"></path><path d="M159 356L163 382L174 348Z" fill="#2c2019" stroke="#0b1132"></path><path d="M831 0L790 135L823 142Z" fill="#81451c" stroke="#0b1132"></path><path d="M164 428L204 450L215 383Z" fill="#c66318" stroke="#0b1132"></path><path d="M234 450L177 476L259 450Z" fill="#af591a" stroke="#0b1132"></path><path d="M91 273L123 291L132 210Z" fill="#2c2019" stroke="#0b1132"></path><path d="M135 293L136 349L174 348Z" fill="#40291a" stroke="#0b1132"></path><path d="M752 450L822 402L800 377Z" fill="#de6d15" stroke="#0b1132"></path><path d="M800 377L822 402L847 303Z" fill="#af591a" stroke="#0b1132"></path><path d="M126 81L124 104L155 111Z" fill="#171717" stroke="#0b1132"></path><path d="M126 81L155 111L152 75Z" fill="#2c2019" stroke="#0b1132"></path><path d="M123 291L136 349L135 293Z" fill="#40291a" stroke="#0b1132"></path><path d="M172 450L197 456L204 450Z" fill="#2c2019" stroke="#0b1132"></path><path d="M900 188L865 163L900 238Z" fill="#c66318" stroke="#0b1132"></path><path d="M892 59L831 0L823 142Z" fill="#984f1c" stroke="#0b1132"></path><path d="M124 49L126 81L152 75Z" fill="#171717" stroke="#0b1132"></path><path d="M164 428L215 383L163 382Z" fill="#af591a" stroke="#0b1132"></path><path d="M204 450L197 456L234 450Z" fill="#2c2019" stroke="#0b1132"></path><path d="M37 113L106 157L124 104Z" fill="#55321b" stroke="#0b1132"></path><path d="M124 104L106 157L136 144Z" fill="#40291a" stroke="#0b1132"></path><path d="M77 246L91 273L132 210Z" fill="#171717" stroke="#0b1132"></path><path d="M891 115L840 158L865 163Z" fill="#c66318" stroke="#0b1132"></path><path d="M110 359L164 428L163 382Z" fill="#f7770f" stroke="#0b1132"></path><path d="M206 0L124 49L152 75Z" fill="#40291a" stroke="#0b1132"></path><path d="M126 81L37 113L124 104Z" fill="#55321b" stroke="#0b1132"></path><path d="M900 327L887 294L847 303Z" fill="#f7770f" stroke="#0b1132"></path><path d="M900 266L900 238L805 245Z" fill="#af591a" stroke="#0b1132"></path><path d="M900 238L865 163L805 245Z" fill="#f7770f" stroke="#0b1132"></path><path d="M881 167L891 115L865 163Z" fill="#81451c" stroke="#0b1132"></path><path d="M900 188L900 184L881 167Z" fill="#55321b" stroke="#0b1132"></path><path d="M900 184L891 115L881 167Z" fill="#af591a" stroke="#0b1132"></path><path d="M900 266L805 245L847 303Z" fill="#81451c" stroke="#0b1132"></path><path d="M164 428L172 450L204 450Z" fill="#81451c" stroke="#0b1132"></path><path d="M887 294L900 266L847 303Z" fill="#55321b" stroke="#0b1132"></path><path d="M77 246L132 210L120 200Z" fill="#40291a" stroke="#0b1132"></path><path d="M87 323L110 359L136 349Z" fill="#984f1c" stroke="#0b1132"></path><path d="M136 349L110 359L163 382Z" fill="#af591a" stroke="#0b1132"></path><path d="M84 450L177 476L172 450Z" fill="#de6d15" stroke="#0b1132"></path><path d="M752 450L830 450L822 402Z" fill="#40291a" stroke="#0b1132"></path><path d="M822 402L900 327L847 303Z" fill="#55321b" stroke="#0b1132"></path><path d="M887 294L900 327L900 266Z" fill="#55321b" stroke="#0b1132"></path><path d="M420 474L804 474L577 454Z" fill="#af591a" stroke="#0b1132"></path><path d="M892 59L856 0L831 0Z" fill="#55321b" stroke="#0b1132"></path><path d="M831 0L856 0L802 -17Z" fill="#af591a" stroke="#0b1132"></path><path d="M87 323L136 349L123 291Z" fill="#c66318" stroke="#0b1132"></path><path d="M804 474L830 450L752 450Z" fill="#2c2019" stroke="#0b1132"></path><path d="M900 184L900 95L891 115Z" fill="#55321b" stroke="#0b1132"></path><path d="M891 115L892 59L823 142Z" fill="#de6d15" stroke="#0b1132"></path><path d="M84 450L172 450L164 428Z" fill="#55321b" stroke="#0b1132"></path><path d="M172 450L177 476L197 456Z" fill="#171717" stroke="#0b1132"></path><path d="M197 456L177 476L234 450Z" fill="#55321b" stroke="#0b1132"></path><path d="M420 474L177 476L804 474Z" fill="#c66318" stroke="#0b1132"></path><path d="M48 242L77 246L120 200Z" fill="#81451c" stroke="#0b1132"></path><path d="M91 273L87 323L123 291Z" fill="#c66318" stroke="#0b1132"></path><path d="M48 242L120 200L106 157Z" fill="#171717" stroke="#0b1132"></path><path d="M900 95L892 59L891 115Z" fill="#171717" stroke="#0b1132"></path><path d="M900 449L900 327L822 402Z" fill="#40291a" stroke="#0b1132"></path><path d="M28 308L87 323L91 273Z" fill="#c66318" stroke="#0b1132"></path><path d="M110 359L82 441L164 428Z" fill="#f7770f" stroke="#0b1132"></path><path d="M206 0L118 0L124 49Z" fill="#af591a" stroke="#0b1132"></path><path d="M124 49L37 113L126 81Z" fill="#f7770f" stroke="#0b1132"></path><path d="M125 -13L118 0L206 0Z" fill="#55321b" stroke="#0b1132"></path><path d="M330 -39L125 -13L206 0Z" fill="#6b3b1c" stroke="#0b1132"></path><path d="M900 95L900 41L892 59Z" fill="#984f1c" stroke="#0b1132"></path><path d="M892 59L900 41L856 0Z" fill="#40291a" stroke="#0b1132"></path><path d="M125 -13L106 0L118 0Z" fill="#f7770f" stroke="#0b1132"></path><path d="M118 0L106 0L124 49Z" fill="#984f1c" stroke="#0b1132"></path><path d="M125 -13L105 0L106 0Z" fill="#984f1c" stroke="#0b1132"></path><path d="M106 0L105 0L124 49Z" fill="#c66318" stroke="#0b1132"></path><path d="M804 474L859 450L830 450Z" fill="#81451c" stroke="#0b1132"></path><path d="M830 450L859 450L822 402Z" fill="#f7770f" stroke="#0b1132"></path><path d="M0 213L48 242L0 168Z" fill="#2c2019" stroke="#0b1132"></path><path d="M77 246L48 242L91 273Z" fill="#af591a" stroke="#0b1132"></path><path d="M900 41L900 1L856 0Z" fill="#c66318" stroke="#0b1132"></path><path d="M856 0L900 0L802 -17Z" fill="#40291a" stroke="#0b1132"></path><path d="M900 1L900 0L856 0Z" fill="#40291a" stroke="#0b1132"></path><path d="M125 -13L81 0L105 0Z" fill="#984f1c" stroke="#0b1132"></path><path d="M105 0L81 0L124 49Z" fill="#c66318" stroke="#0b1132"></path><path d="M81 0L37 113L124 49Z" fill="#984f1c" stroke="#0b1132"></path><path d="M900 450L900 449L859 450Z" fill="#c66318" stroke="#0b1132"></path><path d="M859 450L900 449L822 402Z" fill="#171717" stroke="#0b1132"></path><path d="M804 474L900 450L859 450Z" fill="#c66318" stroke="#0b1132"></path><path d="M62 423L110 359L32 383Z" fill="#984f1c" stroke="#0b1132"></path><path d="M62 423L82 441L110 359Z" fill="#171717" stroke="#0b1132"></path><path d="M0 248L28 308L48 242Z" fill="#c66318" stroke="#0b1132"></path><path d="M48 242L28 308L91 273Z" fill="#40291a" stroke="#0b1132"></path><path d="M62 423L84 450L82 441Z" fill="#af591a" stroke="#0b1132"></path><path d="M82 441L84 450L164 428Z" fill="#55321b" stroke="#0b1132"></path><path d="M35 362L110 359L87 323Z" fill="#6b3b1c" stroke="#0b1132"></path><path d="M28 308L35 362L87 323Z" fill="#55321b" stroke="#0b1132"></path><path d="M0 168L48 242L106 157Z" fill="#55321b" stroke="#0b1132"></path><path d="M0 369L32 383L35 362Z" fill="#55321b" stroke="#0b1132"></path><path d="M0 114L0 168L37 113Z" fill="#40291a" stroke="#0b1132"></path><path d="M37 113L0 168L106 157Z" fill="#c66318" stroke="#0b1132"></path><path d="M0 369L35 362L28 308Z" fill="#af591a" stroke="#0b1132"></path><path d="M35 362L32 383L110 359Z" fill="#55321b" stroke="#0b1132"></path><path d="M0 213L0 248L48 242Z" fill="#6b3b1c" stroke="#0b1132"></path><path d="M0 84L0 114L37 113Z" fill="#c66318" stroke="#0b1132"></path><path d="M0 248L0 305L28 308Z" fill="#40291a" stroke="#0b1132"></path><path d="M-7 117L-11 173L0 168Z" fill="#171717" stroke="#0b1132"></path><path d="M0 168L-11 173L0 213Z" fill="#171717" stroke="#0b1132"></path><path d="M0 213L-11 173L0 248Z" fill="#af591a" stroke="#0b1132"></path><path d="M0 248L-11 173L0 305Z" fill="#171717" stroke="#0b1132"></path><path d="M0 76L0 84L37 113Z" fill="#6b3b1c" stroke="#0b1132"></path><path d="M0 114L-7 117L0 168Z" fill="#af591a" stroke="#0b1132"></path><path d="M0 84L-7 117L0 114Z" fill="#55321b" stroke="#0b1132"></path><path d="M81 0L0 76L37 113Z" fill="#6b3b1c" stroke="#0b1132"></path><path d="M0 84L0 76L-7 117Z" fill="#40291a" stroke="#0b1132"></path><path d="M0 305L0 369L28 308Z" fill="#6b3b1c" stroke="#0b1132"></path><path d="M32 383L5 450L62 423Z" fill="#40291a" stroke="#0b1132"></path><path d="M62 423L5 450L84 450Z" fill="#81451c" stroke="#0b1132"></path><path d="M-11 173L0 369L0 305Z" fill="#171717" stroke="#0b1132"></path><path d="M-11 173L0 384L0 369Z" fill="#6b3b1c" stroke="#0b1132"></path><path d="M0 369L0 384L32 383Z" fill="#f7770f" stroke="#0b1132"></path><path d="M-3 -33L0 0L81 0Z" fill="#6b3b1c" stroke="#0b1132"></path><path d="M81 0L0 0L0 76Z" fill="#55321b" stroke="#0b1132"></path><path d="M0 76L0 0L-7 117Z" fill="#81451c" stroke="#0b1132"></path><path d="M-7 117L-3 -33L-11 173Z" fill="#40291a" stroke="#0b1132"></path><path d="M-3 -33L81 0L125 -13Z" fill="#f7770f" stroke="#0b1132"></path><path d="M0 384L5 450L32 383Z" fill="#c66318" stroke="#0b1132"></path><path d="M84 450L5 450L177 476Z" fill="#81451c" stroke="#0b1132"></path><path d="M330 -39L-3 -33L125 -13Z" fill="#984f1c" stroke="#0b1132"></path><path d="M0 0L-3 -33L-7 117Z" fill="#c66318" stroke="#0b1132"></path><path d="M-11 173L0 450L0 384Z" fill="#40291a" stroke="#0b1132"></path><path d="M0 384L0 450L5 450Z" fill="#2c2019" stroke="#0b1132"></path><path d="M5 450L0 450L177 476Z" fill="#984f1c" stroke="#0b1132"></path></g></svg>